<svg xmlns="http://www.w3.org/2000/svg" xmlns:xlink="http://www.w3.org/1999/xlink" width="99.733" height="100.837" viewBox="0 0 99.733 100.837">
  <defs>
    <clipPath id="clip-path">
      <rect id="Rettangolo_257" data-name="Rettangolo 257" width="99.733" height="100.837" fill="#fff"/>
    </clipPath>
  </defs>
  <g id="Raggruppa_306" data-name="Raggruppa 306" clip-path="url(#clip-path)">
    <path id="Tracciato_328" data-name="Tracciato 328" d="M98.461,60.329c-2.694-1.2-4.6-3.4-6.773-5.25-2.761-2.355-5.759-4.527-7.731-7.988,1.3-.21,2.343-.413,3.392-.539,3.182-.381,6.374-.689,9.55-1.113,1.228-.164,3.059-.109,2.811-1.938-.241-1.778-2.005-1.321-3.269-1.251-1.478.081-2.946.312-4.42.458-1.976.2-3.953.374-6.21.587,2.263-3.319,4.127-6.324,6.284-9.1,1.04-1.34.742-2.5-.16-3.232-.946-.767-1.557.6-1.988,1.225-2.419,3.536-5.211,6.778-7.8,10.177a4.189,4.189,0,0,1-3.2,1.962c-1.628.112-3.247.348-5.359.584.391-.754.548-1.025.674-1.306,1.707-3.831,5.29-6.525,6.47-10.687.177-.624.744-1.247.052-1.776-.958-.732-1.282.351-1.7.813A51.454,51.454,0,0,0,70.992,43.4a3.891,3.891,0,0,1-3.442,2.3c-3.592.372-7.214.584-10.689,1.7a1.972,1.972,0,0,1-.732.069c-.649-.047-1.407.021-1.717-.71-.26-.613.195-1.09.581-1.523.765-.861,1.54-1.714,2.313-2.568,4.747-5.238,8.67-11.2,13.944-15.981.591-.536.953-1.164,2.052-.891a8.479,8.479,0,0,0,10.5-6.9c.362-2.026.269-4.189-1.351-5.781-2.394-2.35-6.691-2.52-9.607-.513-2.348,1.616-3.9,6.286-2.642,8.863a1.83,1.83,0,0,1-.534,2.517,107.367,107.367,0,0,0-7.393,8.258c-1.9,2.374-3.907,4.663-5.748,7.082-.568.746-1.132,1.759-1.976,1.593-1.066-.21-.689-1.53-.791-2.336-.257-2.036-.124-4.127-.455-6.146-.56-3.426-.439-6.43,1.8-9.516,1.91-2.634,3.769-5.371,5.53-8.143.77-1.209,1.5-2.389,1.254-3.881-.114-.689.026-1.652-.837-1.876-.791-.2-1.053.694-1.363,1.2a38.127,38.127,0,0,1-7.719,8.653c-.234-2.779-.508-5.3-.643-7.831a11.783,11.783,0,0,1,2.655-8.217c.455-.57,1.869-1.082.722-2.09-.985-.866-2.127-1.22-3.09.291-.7,1.1-1.643,2.05-2.425,3.106-.887,1.2-1.759,1.194-2.844.22a34.693,34.693,0,0,0-3.123-2.394c-.8-.565-1.394-.084-1.886.543a1.2,1.2,0,0,0,.107,1.771c.539.5,1.216.848,1.769,1.333,1.34,1.178,3.266,2.138,3.519,3.938a58.436,58.436,0,0,1,.093,8c-.882.017-1.242-.575-1.736-.987-2.458-2.052-4.565-4.518-7.288-6.251-.908-.577-2.062-1.733-2.925-.257A2.45,2.45,0,0,0,36,13.266c3.421,2.183,6.112,5.214,9.252,7.716a5.485,5.485,0,0,1,2.282,5.082,34.79,34.79,0,0,0,.343,4.661c.193,3.555.825,7.1.441,10.8-2.83-1.233-4.62-3.469-6.9-5.051-4.329-3-7.891-6.9-11.826-10.363-.579-.512-.09-.832-.026-1.268.658-4.5-3.614-9.748-8.148-10.058a3.005,3.005,0,0,0-2.1.522c-3.04,2.232-3.643,5.7-1.7,9.929A6.41,6.41,0,0,0,25.6,28.721a1.887,1.887,0,0,1,2.11.594c2.124,1.814,4.008,3.876,6.248,5.588,4.689,3.586,9.214,7.385,13.8,11.1.441.357,1.053.668.92,1.344-.145.725-.832.686-1.4.727-4.262.314-8.523.63-12.789.913a3.607,3.607,0,0,1-2.608-.508c-3.566-2.749-7.609-4.887-10.742-8.182-1.1-1.152-2.4-1.667-3.366-.537-.992,1.166-.3,2.66.789,3.712a3.572,3.572,0,0,0,1.287.7c2.715.975,4.555,3.159,7.44,4.8a33.821,33.821,0,0,1-8.4,1.163,2.291,2.291,0,0,1-1.352-.45c-3.275-2.412-6.474-4.928-9.8-7.264-1.066-.749-2.277-2.989-3.516-1.552-1.7,1.967.916,2.841,2.084,3.824,2.4,2.022,4.939,3.878,7.784,6.082-.97.143-1.431.233-1.9.277-3.435.341-6.868.7-10.306.987-.93.078-1.783.41-1.885,1.247-.105.854.889,1.009,1.585,1.264a13.284,13.284,0,0,0,4.622.544,52.983,52.983,0,0,0,8.7-.629c.219,1.154-.475,1.638-.825,2.258a96.87,96.87,0,0,0-5.14,9.548c-.646,1.514-.668,3.033.637,3.728,1.566.834,2.212-.891,2.789-1.981q3.23-6.111,7-11.9c1.709-2.634,4.024-3.54,7.312-2.672-.289.515-.57,1-.832,1.492a57.71,57.71,0,0,0-4.637,10.336,1.776,1.776,0,0,0,1,2.439c1.24.5,1.154-.787,1.492-1.433,1.524-2.915,3.24-5.75,4.5-8.777,1.583-3.809,3.99-5.8,8.3-5.721,3.006.055,6.026-.594,9.376-.965C41.1,57.526,35.528,63.037,30.816,69.245a1.274,1.274,0,0,1-1.218.668c-4.148-.475-5.631,2.642-7.278,5.48-2.2,3.786.3,7.142,2.959,9.142,2.672,2.014,5.872,1.2,8.744-1.8,1.921-2.009,2.386-7.032.381-8.909-1.769-1.655-1.135-2.7-.005-4.1,4.027-4.973,8.008-9.988,12.058-14.944a6.584,6.584,0,0,1,2.668-2.484,5.915,5.915,0,0,1,.338,1.115c.46,8.208,1.616,16.366,1.759,24.6a2.358,2.358,0,0,1-.444,1.361c-1.354,2.157-2.7,4.317-4.077,6.461-1.686,2.627-3.409,5.23-5.09,7.862a1.709,1.709,0,0,0,.026,2.272c.8.811,1.721.4,2.5-.062a6.026,6.026,0,0,0,1.89-2.537c1.748-3.1,3.469-6.2,5.2-9.309.692,5.14,3.578,10.4-1.316,14.887a1.09,1.09,0,0,0-.186,1.559c.455.587,1.013.246,1.578.179,1.4-.169,1.76-1.4,2.424-2.276,2.095-2.77,3.838-3.158,6.649-1.369.694.441,1.383.891,2.1,1.285.925.51,2.062,1.326,2.77-.009.606-1.149-.522-1.693-1.43-2.127-4.87-2.327-7.7-5.9-7-11.581.086-.689-.5-1.643.341-2.026.763-.346,1.282.539,1.871.934,3.345,2.243,6.661,4.529,10.024,6.744.873.575,2.043.772,2.668-.191.708-1.092-.45-1.525-1.189-2q-6.511-4.219-12.72-8.871a2.932,2.932,0,0,1-1.45-2.358c-.386-6.315-.885-12.625-1.275-18.942-.084-1.394-.462-2.846.095-4.272,1.03.32,1.407,1.115,2,1.662,4.389,4.093,7.938,9.021,12.59,12.839,1.841,1.511,2.956,2.763,1.4,5.24-1.53,2.429-.408,4.822,1.216,6.782A5.877,5.877,0,0,0,78.6,82.18c2.61-.634,4.971-3.233,4.816-5.206-.372-4.741-2.882-8.1-6.318-8.2a4.623,4.623,0,0,1-3.059-1.23,113.973,113.973,0,0,1-8.535-8.484c-2.827-2.916-5.7-5.784-8.9-9.026,3.924-.519,7.257-.965,10.592-1.4a1.754,1.754,0,0,1,1.387.37c2.169,1.747,4.537,3.251,6.27,5.512a16.745,16.745,0,0,0,4.463,4.191c.9.553,1.85,1.127,2.644.155.9-1.1-.427-1.518-.977-2.108-2.6-2.785-5.214-5.548-8.031-8.539a36.186,36.186,0,0,0,3.847-.558,4.491,4.491,0,0,1,4.927,1.793c3.695,4.568,8.413,8.012,12.811,11.81a4.949,4.949,0,0,0,3.049,1.488c.682.022,1.414-.034,1.657-.772a1.377,1.377,0,0,0-.784-1.65M75.985,14.239a3.359,3.359,0,0,1,4.932,3.247,5.424,5.424,0,0,1-5.426,5.139A8.988,8.988,0,0,1,78.1,20.032a1.89,1.89,0,0,0,.536-2.806c-.727-.908-1.678-.245-2.4.288-.906.67-1.736,1.44-2.684,2.238-.389-2.2.832-4.809,2.434-5.512m-52.52,9.634c.119.543.7,1.356-.327,1.642a1.773,1.773,0,0,1-1.771-.6c-1.64-1.662-1.552-5.7.176-7.209.68-.593,1.233-.21,1.742.215a7.483,7.483,0,0,1,2.727,4.034c-1.723-.279-3.03-.3-2.546,1.919m9.094,53.89a4.868,4.868,0,0,1-2.816,4.3,2.694,2.694,0,0,1-3.369-.608,4.541,4.541,0,0,1-1.185-4.944c.582-1.583,1.021-3.3,3.1-3.945-.42.651-.858,1.294-1.256,1.957a1.86,1.86,0,0,0,.5,2.613c1.061.894,1.6-.121,2.226-.668.567-.494.648-1.886,1.633-1.459s1.261,1.607,1.175,2.758M75.139,73.51c1.351.443,3.738-.424,4.052,2.043.174,1.368-1.736,3.507-2.975,3.34A2.693,2.693,0,0,1,73.6,75.836c.379-.827.065-2.806,1.535-2.326" transform="translate(0.001 0)" fill="#fff"/>
  </g>
</svg>
