<svg xmlns="http://www.w3.org/2000/svg" width="70" height="70" viewBox="0 0 70 70">
  <g id="Raggruppa_262" data-name="Raggruppa 262" transform="translate(-3.375 -3.375)">
    <path id="Tracciato_5" data-name="Tracciato 5" d="M10.932,15.371a3.234,3.234,0,0,0,0,4.578l16.15,16a3.269,3.269,0,0,0,4.489.1L47.485,20.284a3.224,3.224,0,0,0,.017-4.578,3.269,3.269,0,0,0-4.607,0l-13.67,13.38L15.539,15.354A3.269,3.269,0,0,0,10.932,15.371Z" transform="translate(9.15 15.422)" fill="#fff"/>
    <path id="Tracciato_6" data-name="Tracciato 6" d="M3.375,38.375a35,35,0,1,0,35-35A34.995,34.995,0,0,0,3.375,38.375ZM59.308,17.442A29.6,29.6,0,1,1,17.442,59.308,29.6,29.6,0,1,1,59.308,17.442Z" fill="#fff"/>
  </g>
</svg>
