<svg xmlns="http://www.w3.org/2000/svg" width="40" height="49.229" viewBox="0 0 40 49.229">
  <path id="Icon_awesome-running" data-name="Icon awesome-running" d="M26.154,9.231a4.615,4.615,0,1,0-4.615-4.615A4.615,4.615,0,0,0,26.154,9.231Zm-15.222,21.3L9.509,33.845H3.077a3.077,3.077,0,0,0,0,6.154h7.447a4.606,4.606,0,0,0,4.241-2.8l.845-1.973-1.026-.606a9.156,9.156,0,0,1-3.653-4.1Zm25.991-8.988H32.689l-2.506-5.12a9.226,9.226,0,0,0-5.94-4.9L17.409,9.487a9.192,9.192,0,0,0-7.773,1.648L5.821,14.059a3.077,3.077,0,0,0,3.744,4.883l3.816-2.924a2.994,2.994,0,0,1,2.43-.59l1.413.42-3.6,8.4a6.17,6.17,0,0,0,2.529,7.722L24.323,36.8l-2.641,8.436a3.077,3.077,0,1,0,5.872,1.838L30.6,37.353a4.635,4.635,0,0,0-2.081-5.23l-5.888-3.475,3.011-7.527L27.587,25.1a4.644,4.644,0,0,0,4.145,2.586h5.191a3.076,3.076,0,1,0,0-6.153Z" fill="#2b3990"/>
</svg>
