<svg xmlns="http://www.w3.org/2000/svg" width="40.431" height="39.589" viewBox="0 0 40.431 39.589">
  <path id="Icon_map-doctor" data-name="Icon map-doctor" d="M36.033,10.828H31.886v-4.4A5.649,5.649,0,0,0,26.247.72H15.625A5.649,5.649,0,0,0,9.986,6.426v4.4H5.837a5.024,5.024,0,0,0-5.117,5V35.208a5.108,5.108,0,0,0,5.117,5.1h30.2a5.11,5.11,0,0,0,5.118-5.1V15.829A5.025,5.025,0,0,0,36.033,10.828Zm-22.679-4.4a2.433,2.433,0,0,1,2.27-2.337H26.247a2.435,2.435,0,0,1,2.269,2.337v4.4H13.355ZM30.2,29.359h-5.9v5.9H17.566v-5.9h-5.9V22.62h5.9v-5.9h6.739v5.9h5.9v6.739Z" transform="translate(-0.72 -0.72)" fill="#2b3990"/>
</svg>
