<svg xmlns="http://www.w3.org/2000/svg" width="40" height="45.714" viewBox="0 0 40 45.714">
  <path id="Icon_awesome-calendar-check" data-name="Icon awesome-calendar-check" d="M38.929,14.286H1.071A1.071,1.071,0,0,1,0,13.214V10A4.286,4.286,0,0,1,4.286,5.714H8.571V1.071A1.071,1.071,0,0,1,9.643,0h3.571a1.071,1.071,0,0,1,1.071,1.071V5.714H25.714V1.071A1.071,1.071,0,0,1,26.786,0h3.571a1.071,1.071,0,0,1,1.071,1.071V5.714h4.286A4.286,4.286,0,0,1,40,10v3.214A1.071,1.071,0,0,1,38.929,14.286ZM1.071,17.143H38.929A1.071,1.071,0,0,1,40,18.214V41.429a4.286,4.286,0,0,1-4.286,4.286H4.286A4.286,4.286,0,0,1,0,41.429V18.214A1.071,1.071,0,0,1,1.071,17.143ZM30.83,25.71l-2.515-2.536a1.071,1.071,0,0,0-1.515-.006l-9.468,9.391-4.105-4.139a1.071,1.071,0,0,0-1.515-.006L9.176,30.93a1.071,1.071,0,0,0-.006,1.515l7.375,7.435a1.071,1.071,0,0,0,1.515.006L30.824,27.225a1.071,1.071,0,0,0,.006-1.515Z" fill="#2b3990"/>
</svg>
