<svg xmlns="http://www.w3.org/2000/svg" width="50" height="40" viewBox="0 0 50 40">
  <path id="Icon_awesome-diagnoses" data-name="Icon awesome-diagnoses" d="M38.75,20a1.25,1.25,0,1,0-1.25-1.25A1.254,1.254,0,0,0,38.75,20ZM25,13.75a6.875,6.875,0,1,0-6.875-6.875A6.885,6.885,0,0,0,25,13.75ZM4.672,28.438a2.491,2.491,0,0,0,3.352.766,46.822,46.822,0,0,1,8.227-3.8V32.5h17.5V25.414a46.245,46.245,0,0,1,8.227,3.8,2.506,2.506,0,0,0,3.352-.766l1.391-2.086a2.491,2.491,0,0,0-.781-3.523c-.93-.555-2.32-1.328-3.992-2.141a3.741,3.741,0,0,1-6.852-2.742A33.826,33.826,0,0,0,25,16.25a36.185,36.185,0,0,0-12.5,2.516,3.738,3.738,0,0,1-6.188,2.813c-.875.469-1.664.906-2.242,1.25a2.49,2.49,0,0,0-.781,3.523ZM28.75,26.875a1.875,1.875,0,1,1-1.875,1.875A1.871,1.871,0,0,1,28.75,26.875Zm-7.5-7.5a1.875,1.875,0,1,1-1.875,1.875A1.871,1.871,0,0,1,21.25,19.375ZM8.75,20A1.25,1.25,0,1,0,7.5,18.75,1.254,1.254,0,0,0,8.75,20Zm40,15H1.25A1.254,1.254,0,0,0,0,36.25v2.5A1.254,1.254,0,0,0,1.25,40h47.5A1.254,1.254,0,0,0,50,38.75v-2.5A1.254,1.254,0,0,0,48.75,35Z" fill="#2b3990"/>
</svg>
