<svg xmlns="http://www.w3.org/2000/svg" width="40" height="40" viewBox="0 0 40 40">
  <path id="Icon_metro-weather5" data-name="Icon metro-weather5" d="M33.821,6.928a8.669,8.669,0,0,0-1.234.088,12.4,12.4,0,0,0-20.033,0,8.669,8.669,0,0,0-1.234-.088,8.75,8.75,0,1,0,0,17.5,8.658,8.658,0,0,0,3.1-.573,12.338,12.338,0,0,0,16.3,0,8.658,8.658,0,0,0,3.1.573,8.75,8.75,0,0,0,0-17.5Zm-23.75,20a2.5,2.5,0,1,0,2.5,2.5A2.5,2.5,0,0,0,10.071,26.928Zm12.5,2.5a2.5,2.5,0,1,0,2.5,2.5A2.5,2.5,0,0,0,22.571,29.428Zm12.5-2.5a2.5,2.5,0,1,0,2.5,2.5A2.5,2.5,0,0,0,35.071,26.928Zm-5,10a2.5,2.5,0,1,0,2.5,2.5A2.5,2.5,0,0,0,30.071,36.928Zm-15,0a2.5,2.5,0,1,0,2.5,2.5A2.5,2.5,0,0,0,15.071,36.928Z" transform="translate(-2.571 -1.928)" fill="#2b3990"/>
</svg>
