<svg xmlns="http://www.w3.org/2000/svg" width="44" height="41.905" viewBox="0 0 44 41.905">
  <path id="Icon_awesome-crutch" data-name="Icon awesome-crutch" d="M43.6,15.2,28.043.385a1.424,1.424,0,0,0-1.944,0l-1.95,1.85a1.266,1.266,0,0,0,0,1.852L39.7,18.9a1.424,1.424,0,0,0,1.945,0l1.944-1.852A1.266,1.266,0,0,0,43.6,15.2Zm-15.43,5.435-5.834-5.556,4.735-4.51-3.889-3.7L13.756,15.84a7.769,7.769,0,0,0-2.206,3.789L9.166,29.471.4,37.819a1.266,1.266,0,0,0,0,1.852l1.944,1.851a1.424,1.424,0,0,0,1.945,0l8.766-8.348L23.389,30.9a8.361,8.361,0,0,0,3.978-2.1l9.426-8.977L32.9,16.123ZM23.479,25.1a2.791,2.791,0,0,1-1.328.7l-6.815,1.5,1.573-6.49a2.605,2.605,0,0,1,.736-1.264l.8-.762,5.834,5.556Z" transform="translate(0.003 -0.002)" fill="#2b3990"/>
</svg>
