<svg xmlns="http://www.w3.org/2000/svg" xmlns:xlink="http://www.w3.org/1999/xlink" width="305.613" height="22.562" viewBox="0 0 305.613 22.562">
  <defs>
    <clipPath id="clip-path">
      <rect id="Rettangolo_258" data-name="Rettangolo 258" width="305.613" height="22.562" fill="none"/>
    </clipPath>
  </defs>
  <g id="Raggruppa_308" data-name="Raggruppa 308" clip-path="url(#clip-path)">
    <path id="Tracciato_329" data-name="Tracciato 329" d="M85.523,22.036c-9.928-1.318-14.248-7.88-19.311-14.447C60.06-.395,52.041-1.674,46.341,2.9,37.739,9.774,42.368,21.7,51.32,21.84a6.532,6.532,0,0,0,6.57-7.589c-.926-4.774-6.841-5.668-8.646-1.862-2.034,4.311,4.385,6.018,3.978,2.369-.232-2.055-1.636-.249-2.429-.359A2.506,2.506,0,0,1,53.3,11.98c4.566-.413,4.471,8.186-1.93,8.355-7.108.175-11.419-9.522-5.208-15.567C50.7.336,60.767.95,62.177,9.789c6.924-.433,9.712,11.333,23.345,12.247" transform="translate(82.257 0.526)" fill="#fff"/>
    <path id="Tracciato_330" data-name="Tracciato 330" d="M46.424,0C56.352,1.312,60.678,7.883,65.74,14.438c6.152,8,14.171,9.263,19.866,4.706C94.207,12.253,89.579.333,80.627.19a6.546,6.546,0,0,0-6.57,7.592c.926,4.777,6.847,5.677,8.646,1.865,2.04-4.314-4.391-6.009-3.979-2.369.238,2.052,1.642.252,2.429.362a2.5,2.5,0,0,1-2.509,2.411c-4.566.422-4.465-8.177,1.936-8.355,7.1-.175,11.413,9.531,5.2,15.575-4.531,4.427-14.6,3.815-16.012-5.024C62.852,12.678,60.058.911,46.424,0" transform="translate(91.41 0.001)" fill="#fff"/>
    <path id="Tracciato_331" data-name="Tracciato 331" d="M41.19,3.719a.7.7,0,0,0-.107.977.7.7,0,1,0,.107-.977" transform="translate(80.594 7.018)" fill="#fff"/>
    <path id="Tracciato_332" data-name="Tracciato 332" d="M117.933,2.873C102.408,5.691,3.162,4.948,0,5.619c3.162.671,102.408-.065,117.933,2.746a4.9,4.9,0,0,1,2.429-2.746,4.833,4.833,0,0,1-2.429-2.746" transform="translate(0 5.658)" fill="#fff"/>
    <path id="Tracciato_333" data-name="Tracciato 333" d="M62.669,3.719a.694.694,0,0,1,.1.977A.7.7,0,1,1,61.69,3.82a.7.7,0,0,1,.98-.1" transform="translate(121.161 7.018)" fill="#fff"/>
    <path id="Tracciato_334" data-name="Tracciato 334" d="M64.824,2.873C80.352,5.691,179.594,4.948,182.756,5.619c-3.162.671-102.4-.065-117.933,2.746A4.877,4.877,0,0,0,62.4,5.619a4.812,4.812,0,0,0,2.429-2.746" transform="translate(122.857 5.658)" fill="#fff"/>
  </g>
</svg>
