<svg xmlns="http://www.w3.org/2000/svg" xmlns:xlink="http://www.w3.org/1999/xlink" width="448.373" height="82.943" viewBox="0 0 448.373 82.943">
  <defs>
    <clipPath id="clip-path">
      <rect id="Rettangolo_1" data-name="Rettangolo 1" width="90.536" height="82.943" fill="none"/>
    </clipPath>
    <clipPath id="clip-path-2">
      <rect id="Rettangolo_5" data-name="Rettangolo 5" width="357.836" height="55.791" fill="none"/>
    </clipPath>
  </defs>
  <g id="Raggruppa_271" data-name="Raggruppa 271" transform="translate(-67.712 -56.759)">
    <g id="Raggruppa_2" data-name="Raggruppa 2" transform="translate(425.548 56.759)">
      <g id="Raggruppa_1" data-name="Raggruppa 1" clip-path="url(#clip-path)">
        <path id="Tracciato_8" data-name="Tracciato 8" d="M227.508,15.921c-3.643-1.576-9.191-.494-12.9.937a45.8,45.8,0,0,0-9.17,4.831,3.626,3.626,0,0,1-1.223.72C202.366,13.377,194.745,3.85,187,1.46c13.862-4.236,30.689.8,40.505,14.462" transform="translate(-145.222 0)" fill="#afdfe4" fill-rule="evenodd"/>
        <path id="Tracciato_9" data-name="Tracciato 9" d="M293.846,99.491c-2.829-4.766-9.467-6.037-16.373-4.215a60.605,60.605,0,0,0-15.659,7.115c1.186-5.549,2.193-11.737,1.043-19.033,2.954-2.955,10.117-7.788,17.965-8a13.692,13.692,0,0,1,6.515,1.391c3.09,3.947,6.711,13.1,6.509,22.738" transform="translate(-203.318 -58.52)" fill="#00b0d8" fill-rule="evenodd"/>
        <path id="Tracciato_10" data-name="Tracciato 10" d="M201.009,200.992c-.095.072-.1.07-.053-.047a56.557,56.557,0,0,0,12.695-22c4.705-3,9.416-6.225,15.624-7.975,10.851-3.061,15.565,1.312,17.064,3.624-.162,6.922-3.816,16.72-8.548,22.036-3.8-14.487-32.3,1.711-36.782,4.366" transform="translate(-156.035 -131.951)" fill="#ef4136" fill-rule="evenodd"/>
        <path id="Tracciato_11" data-name="Tracciato 11" d="M0,315.225a28.376,28.376,0,0,1,17.046-4.536c7.592.938,17.3,2.6,26.251-.244-4.517,2.294-7.343,4.054-16.988,5.085s-17.3-1.772-26.309-.3" transform="translate(0 -241.083)" fill="#2b3990" fill-rule="evenodd"/>
        <path id="Tracciato_12" data-name="Tracciato 12" d="M177.052,330.207c18.521,7.641,23.574-10.175,38.2-6.187-11.966-10.371-24.2,8.508-38.2,6.187" transform="translate(-137.494 -249.191)" fill="#2b3990" fill-rule="evenodd"/>
        <path id="Tracciato_13" data-name="Tracciato 13" d="M97.355,296.666c21.7,13.132,45.635-19.845,58.93-4.688-2.392-24.729-42.281,10.372-58.93,4.688" transform="translate(-75.603 -219.81)" fill="#2b3990" fill-rule="evenodd"/>
        <path id="Tracciato_14" data-name="Tracciato 14" d="M329.313,196.415h-3.96v-3.829H320.51v3.829h-3.7v4.842h3.7v3.83h4.843v-3.83h3.96Z" transform="translate(-246.029 -149.558)" fill="#fff"/>
      </g>
    </g>
    <g id="Raggruppa_5" data-name="Raggruppa 5" transform="translate(67.712 74.911)">
      <path id="Tracciato_15" data-name="Tracciato 15" d="M17.635,1.29V20.255h-.1L4.348,1.29H0V28.333H4.8V9.292h.1l13.22,19.041h4.31V1.29Z" transform="translate(0 -0.821)" fill="#2b3990"/>
      <path id="Tracciato_16" data-name="Tracciato 16" d="M80.207,1.29h17.5V5.356H85.042v7.29H97.017v3.9H85.042v7.721H97.711v4.067h-17.5Z" transform="translate(-51.077 -0.821)" fill="#2b3990"/>
      <path id="Tracciato_17" data-name="Tracciato 17" d="M140.909,1.29h5.023l4.7,20.408h.094L156.145,1.29h4.385L165.947,21.7h.094l4.7-20.408h5l-7.234,27.043h-4.667L158.394,8.917h-.113l-5.453,19.415h-4.667Z" transform="translate(-89.732 -0.821)" fill="#2b3990"/>
      <g id="Raggruppa_4" data-name="Raggruppa 4" transform="translate(0)">
        <g id="Raggruppa_3" data-name="Raggruppa 3" clip-path="url(#clip-path-2)">
          <path id="Tracciato_18" data-name="Tracciato 18" d="M250.941,1.29h4.835V28.333h-4.835ZM253.358,15.5h6.8a5.716,5.716,0,0,0,4.057-1.34,4.914,4.914,0,0,0,1.434-3.776v-.038a4.909,4.909,0,0,0-1.434-3.786,5.743,5.743,0,0,0-4.057-1.33h-6.8V1.29h8a9.919,9.919,0,0,1,4.807,1.124A8.112,8.112,0,0,1,269.4,5.572a9.414,9.414,0,0,1,1.162,4.751v.037a9.375,9.375,0,0,1-1.162,4.732,8.172,8.172,0,0,1-3.233,3.167,9.849,9.849,0,0,1-4.807,1.134h-8Z" transform="translate(-159.802 -0.821)" fill="#2b3990"/>
          <path id="Tracciato_19" data-name="Tracciato 19" d="M323.429,26.274a11.393,11.393,0,0,1-4.441-4.844A16.48,16.48,0,0,1,317.423,14v-.037A16.333,16.333,0,0,1,319,6.541a11.469,11.469,0,0,1,4.451-4.835,14.457,14.457,0,0,1,13.624,0,11.41,11.41,0,0,1,4.441,4.835,16.419,16.419,0,0,1,1.565,7.421V14a16.479,16.479,0,0,1-1.565,7.431,11.414,11.414,0,0,1-4.432,4.844,14.514,14.514,0,0,1-13.653,0m11.057-3.682a7.737,7.737,0,0,0,2.727-3.411A12.941,12.941,0,0,0,338.169,14v-.037a12.885,12.885,0,0,0-.965-5.2,7.651,7.651,0,0,0-2.745-3.392,7.982,7.982,0,0,0-8.386,0,7.629,7.629,0,0,0-2.755,3.383,12.859,12.859,0,0,0-.965,5.21V14a12.874,12.874,0,0,0,.965,5.2,7.7,7.7,0,0,0,2.745,3.4,7.969,7.969,0,0,0,8.424-.009" transform="translate(-202.138)" fill="#2b3990"/>
          <path id="Tracciato_20" data-name="Tracciato 20" d="M403.925,1.29H414.72a11.168,11.168,0,0,1,4.966,1.021,7.445,7.445,0,0,1,3.2,2.914,8.648,8.648,0,0,1,1.124,4.5v.037a8.43,8.43,0,0,1-1.378,4.8,7.461,7.461,0,0,1-3.72,2.923l5.9,10.851h-5.51l-5.323-10.12H408.76v10.12h-4.835Zm10.288,13.1a5,5,0,0,0,3.58-1.209A4.439,4.439,0,0,0,419.067,9.8V9.761a4.329,4.329,0,0,0-1.331-3.345,5.129,5.129,0,0,0-3.617-1.227h-5.36v9.2Z" transform="translate(-257.224 -0.821)" fill="#2b3990"/>
          <path id="Tracciato_21" data-name="Tracciato 21" d="M479.275,5.357h-8.1V1.29h20.989V5.357h-8.077V28.333h-4.816Z" transform="translate(-300.052 -0.821)" fill="#2b3990"/>
          <path id="Tracciato_22" data-name="Tracciato 22" d="M573.251,26.274a11.314,11.314,0,0,1-4.4-4.844,16.692,16.692,0,0,1-1.546-7.45v-.019a16.542,16.542,0,0,1,1.556-7.44,11.34,11.34,0,0,1,4.4-4.826A12.907,12.907,0,0,1,579.988,0a12.579,12.579,0,0,1,5.575,1.2,10.719,10.719,0,0,1,4.02,3.317A10.321,10.321,0,0,1,591.5,9.389l.019.187h-4.741l-.093-.356a6.962,6.962,0,0,0-1.293-2.68A6.035,6.035,0,0,0,583.118,4.8a7.519,7.519,0,0,0-3.13-.619,7.063,7.063,0,0,0-4.1,1.2,7.766,7.766,0,0,0-2.7,3.383,12.909,12.909,0,0,0-.956,5.2v.019a12.993,12.993,0,0,0,.956,5.2,7.787,7.787,0,0,0,2.708,3.411,7.029,7.029,0,0,0,4.095,1.209,7.461,7.461,0,0,0,3.083-.609,6.13,6.13,0,0,0,2.3-1.771,7.389,7.389,0,0,0,1.368-2.83l.056-.187h4.741l-.037.206a10.168,10.168,0,0,1-1.893,4.873,10.613,10.613,0,0,1-4.029,3.308,12.718,12.718,0,0,1-5.585,1.19,12.9,12.9,0,0,1-6.737-1.706" transform="translate(-361.263 0)" fill="#2b3990"/>
          <path id="Tracciato_23" data-name="Tracciato 23" d="M649.364,1.29h17.5V5.356H654.2v7.29h11.975v3.9H654.2v7.721h12.669v4.067h-17.5Z" transform="translate(-413.522 -0.821)" fill="#2b3990"/>
          <path id="Tracciato_24" data-name="Tracciato 24" d="M714.4,1.29h4.348l15.817,22.751-4.573-3.786h2.043V1.29h4.8V28.333h-4.311L716.688,5.525l4.573,3.767H719.2V28.333h-4.8Z" transform="translate(-454.938 -0.821)" fill="#2b3990"/>
          <path id="Tracciato_25" data-name="Tracciato 25" d="M798.628,5.357h-8.1V1.29h20.989V5.357h-8.077V28.333h-4.817Z" transform="translate(-503.419 -0.821)" fill="#2b3990"/>
          <path id="Tracciato_26" data-name="Tracciato 26" d="M862.69,1.29h17.5V5.356H867.525v7.29H879.5v3.9H867.525v7.721h12.669v4.067h-17.5Z" transform="translate(-549.37 -0.821)" fill="#2b3990"/>
          <path id="Tracciato_27" data-name="Tracciato 27" d="M927.726,1.29h10.795a11.168,11.168,0,0,1,4.966,1.021,7.447,7.447,0,0,1,3.2,2.914,8.651,8.651,0,0,1,1.124,4.5v.037a8.43,8.43,0,0,1-1.377,4.8,7.46,7.46,0,0,1-3.72,2.923l5.9,10.851h-5.51l-5.322-10.12h-5.229v10.12h-4.835Zm10.289,13.1a5,5,0,0,0,3.579-1.209A4.439,4.439,0,0,0,942.868,9.8V9.761a4.328,4.328,0,0,0-1.331-3.345,5.128,5.128,0,0,0-3.617-1.227h-5.36v9.2Z" transform="translate(-590.785 -0.821)" fill="#2b3990"/>
          <path id="Tracciato_28" data-name="Tracciato 28" d="M26.763,123.558a5.279,5.279,0,0,1-2.194-2.1A6.291,6.291,0,0,1,23.8,118.3V107.6h1.551v10.613a4.581,4.581,0,0,0,1.277,3.38,4.764,4.764,0,0,0,3.534,1.282,4.757,4.757,0,0,0,3.545-1.282,4.6,4.6,0,0,0,1.265-3.38V107.6h1.55v10.7a6.3,6.3,0,0,1-.764,3.152,5.289,5.289,0,0,1-2.189,2.1,7.211,7.211,0,0,1-3.409.752,7.219,7.219,0,0,1-3.4-.752" transform="translate(-15.159 -68.52)" fill="#2b3990"/>
          <path id="Tracciato_29" data-name="Tracciato 29" d="M70.525,107.6h5.8a6.14,6.14,0,0,1,2.787.593,4.338,4.338,0,0,1,1.824,1.67,4.872,4.872,0,0,1,.644,2.548v.023a4.739,4.739,0,0,1-.94,2.964,4.618,4.618,0,0,1-2.582,1.664l3.99,6.989H80.238L76.453,117.3a1.02,1.02,0,0,1-.165.011H72.075v6.738h-1.55Zm5.677,8.333a3.981,3.981,0,0,0,2.787-.912,3.286,3.286,0,0,0,1-2.554v-.023a3.224,3.224,0,0,0-1.026-2.542,4.106,4.106,0,0,0-2.827-.912H72.075v6.943Z" transform="translate(-44.911 -68.52)" fill="#2b3990"/>
          <path id="Tracciato_30" data-name="Tracciato 30" d="M112.812,122.79a7.012,7.012,0,0,1-2.565-2.987,10.5,10.5,0,0,1-.912-4.537v-.012a10.108,10.108,0,0,1,.907-4.44,6.845,6.845,0,0,1,2.559-2.907,7.21,7.21,0,0,1,3.9-1.032,7.4,7.4,0,0,1,3.158.638,6.147,6.147,0,0,1,2.269,1.785,6.953,6.953,0,0,1,1.277,2.684l.046.183H121.83l-.046-.114a5.235,5.235,0,0,0-1.893-2.782,5.3,5.3,0,0,0-3.192-.957,5.548,5.548,0,0,0-3.084.838,5.453,5.453,0,0,0-2,2.394,8.915,8.915,0,0,0-.707,3.711v.012a9.306,9.306,0,0,0,.713,3.8,5.65,5.65,0,0,0,2.012,2.48,5.37,5.37,0,0,0,3.067.872,5.582,5.582,0,0,0,2.782-.673,4.7,4.7,0,0,0,1.858-1.881,5.749,5.749,0,0,0,.661-2.8v-.365h-5.119v-1.368h6.669v1.368a8.213,8.213,0,0,1-.827,3.813,5.886,5.886,0,0,1-2.36,2.474,7.3,7.3,0,0,1-3.665.872,7.044,7.044,0,0,1-3.888-1.06" transform="translate(-69.626 -68.059)" fill="#2b3990"/>
          <path id="Tracciato_31" data-name="Tracciato 31" d="M158.567,107.6h9.93V109h-8.379v5.929h7.957v1.391h-7.957v6.327H168.5v1.4h-9.93Z" transform="translate(-100.977 -68.519)" fill="#2b3990"/>
          <path id="Tracciato_32" data-name="Tracciato 32" d="M196.436,107.6h1.528l11.024,15.766-2.007-1.927h.718V107.6h1.539v16.451H207.7l-11.024-15.756,2.018,1.915h-.73v13.84h-1.528Z" transform="translate(-125.092 -68.519)" fill="#2b3990"/>
          <path id="Tracciato_33" data-name="Tracciato 33" d="M245.706,109h-5.438v-1.4h12.427V109h-5.438v15.049h-1.55Z" transform="translate(-153.005 -68.519)" fill="#2b3990"/>
          <path id="Tracciato_34" data-name="Tracciato 34" d="M301.173,122.8a6.947,6.947,0,0,1-2.588-2.959,10.265,10.265,0,0,1-.912-4.48v-.012a10.256,10.256,0,0,1,.912-4.486,6.891,6.891,0,0,1,2.582-2.941,7.282,7.282,0,0,1,3.939-1.043,7.008,7.008,0,0,1,3.066.656,6.236,6.236,0,0,1,2.269,1.818,6.389,6.389,0,0,1,1.208,2.7l.023.114h-1.562l-.057-.205a5.276,5.276,0,0,0-.992-1.932,4.578,4.578,0,0,0-1.67-1.266,5.988,5.988,0,0,0-5.381.416,5.638,5.638,0,0,0-2.035,2.445,8.927,8.927,0,0,0-.718,3.722v.012a8.868,8.868,0,0,0,.724,3.716,5.741,5.741,0,0,0,2.04,2.462,5.892,5.892,0,0,0,5.353.428,4.634,4.634,0,0,0,1.682-1.289,5.44,5.44,0,0,0,1.02-2.012l.034-.1h1.562l-.023.114a6.391,6.391,0,0,1-1.208,2.713,6.183,6.183,0,0,1-2.263,1.813,7.043,7.043,0,0,1-3.072.65,7.228,7.228,0,0,1-3.933-1.054" transform="translate(-189.561 -68.059)" fill="#2b3990"/>
          <path id="Tracciato_35" data-name="Tracciato 35" d="M348.4,107.6h1.152v1.892h-.4l-5.313,14.558H342.2Zm-2.987,10.067h7.5l.513,1.334H344.9Zm3.774-8.174V107.6h.752l6.179,16.451h-1.63Z" transform="translate(-217.915 -68.519)" fill="#2b3990"/>
          <path id="Tracciato_36" data-name="Tracciato 36" d="M388.729,107.6h5.8a6.14,6.14,0,0,1,2.787.593,4.339,4.339,0,0,1,1.824,1.67,4.872,4.872,0,0,1,.644,2.548v.023a4.739,4.739,0,0,1-.94,2.964,4.618,4.618,0,0,1-2.582,1.664l3.99,6.989h-1.813l-3.785-6.749a1.02,1.02,0,0,1-.165.011h-4.212v6.738h-1.55Zm5.677,8.333a3.981,3.981,0,0,0,2.788-.912,3.286,3.286,0,0,0,1-2.554v-.023a3.224,3.224,0,0,0-1.026-2.542,4.106,4.106,0,0,0-2.827-.912h-4.059v6.943Z" transform="translate(-247.547 -68.52)" fill="#2b3990"/>
          <path id="Tracciato_37" data-name="Tracciato 37" d="M429.36,107.6h9.93V109H430.91v5.929h7.957v1.391H430.91v6.327h8.379v1.4h-9.93Z" transform="translate(-273.421 -68.519)" fill="#2b3990"/>
          <path id="Tracciato_38" data-name="Tracciato 38" d="M484.408,123.288a4.579,4.579,0,0,1-1.892-1.607,4.178,4.178,0,0,1-.678-2.36v-.011a4.183,4.183,0,0,1,.781-2.479,6.785,6.785,0,0,1,2.411-1.967l1.379-.741.867.935-1.345.752a5.9,5.9,0,0,0-1.961,1.59,3.044,3.044,0,0,0-.6,1.818v.011a3.064,3.064,0,0,0,.5,1.716,3.331,3.331,0,0,0,1.391,1.185,4.775,4.775,0,0,0,2.081.427,6.226,6.226,0,0,0,1.881-.279,5.732,5.732,0,0,0,1.636-.815,5.515,5.515,0,0,0,1.282-1.288,7.283,7.283,0,0,0,1.083-2.349,11.382,11.382,0,0,0,.376-3.021v-.456h1.436v.456a12.021,12.021,0,0,1-.513,3.608,8.311,8.311,0,0,1-1.437,2.776,6.95,6.95,0,0,1-2.559,1.984,7.883,7.883,0,0,1-3.312.7,6.4,6.4,0,0,1-2.8-.581m1.647-8.7q-.866-.923-1.4-1.613a5.417,5.417,0,0,1-.764-1.283,3.462,3.462,0,0,1-.245-1.22v-.011a3.211,3.211,0,0,1,.536-1.813,3.739,3.739,0,0,1,1.453-1.277,4.47,4.47,0,0,1,2.058-.467,4.547,4.547,0,0,1,2.069.456,3.621,3.621,0,0,1,1.431,1.254,3.268,3.268,0,0,1,.524,1.835v.012a3.368,3.368,0,0,1-.946,2.3,11.53,11.53,0,0,1-3.249,2.223l-.855-.889a10.544,10.544,0,0,0,2.787-1.807,2.515,2.515,0,0,0,.8-1.773v-.011a2.28,2.28,0,0,0-.331-1.22,2.331,2.331,0,0,0-.912-.843,2.932,2.932,0,0,0-2.628.006,2.428,2.428,0,0,0-.929.855,2.245,2.245,0,0,0-.342,1.225v.011a2.29,2.29,0,0,0,.228.986,5.2,5.2,0,0,0,.735,1.089q.507.6,1.328,1.494l8.926,9.439v.057h-1.9Z" transform="translate(-306.839 -68.079)" fill="#2b3990"/>
          <path id="Tracciato_39" data-name="Tracciato 39" d="M547.922,122.8a6.947,6.947,0,0,1-2.588-2.959,10.264,10.264,0,0,1-.912-4.48v-.012a10.255,10.255,0,0,1,.912-4.486,6.891,6.891,0,0,1,2.582-2.941,7.282,7.282,0,0,1,3.939-1.043,7.008,7.008,0,0,1,3.066.656,6.236,6.236,0,0,1,2.269,1.818,6.389,6.389,0,0,1,1.208,2.7l.023.114H556.86l-.057-.205a5.275,5.275,0,0,0-.992-1.932,4.578,4.578,0,0,0-1.67-1.266,5.988,5.988,0,0,0-5.381.416,5.637,5.637,0,0,0-2.035,2.445,8.927,8.927,0,0,0-.718,3.722v.012a8.867,8.867,0,0,0,.724,3.716,5.741,5.741,0,0,0,2.04,2.462,5.892,5.892,0,0,0,5.353.428,4.635,4.635,0,0,0,1.682-1.289,5.44,5.44,0,0,0,1.02-2.012l.034-.1h1.562l-.023.114a6.392,6.392,0,0,1-1.208,2.713,6.183,6.183,0,0,1-2.263,1.813,7.043,7.043,0,0,1-3.072.65,7.228,7.228,0,0,1-3.933-1.054" transform="translate(-346.694 -68.059)" fill="#2b3990"/>
          <path id="Tracciato_40" data-name="Tracciato 40" d="M594.141,122.813a6.839,6.839,0,0,1-2.588-2.941,10.326,10.326,0,0,1-.912-4.5v-.023a10.233,10.233,0,0,1,.918-4.5,6.878,6.878,0,0,1,2.594-2.936,8.093,8.093,0,0,1,7.929,0,6.856,6.856,0,0,1,2.582,2.936,10.291,10.291,0,0,1,.912,4.5v.023a10.327,10.327,0,0,1-.912,4.5,6.863,6.863,0,0,1-2.576,2.941,8.128,8.128,0,0,1-7.946,0m7.108-1.271a5.67,5.67,0,0,0,2.035-2.457,8.932,8.932,0,0,0,.718-3.716v-.023a8.9,8.9,0,0,0-.724-3.734,5.648,5.648,0,0,0-10.34-.005,8.879,8.879,0,0,0-.724,3.739v.023a8.9,8.9,0,0,0,.724,3.728,5.42,5.42,0,0,0,5.182,3.317,5.533,5.533,0,0,0,3.129-.872" transform="translate(-376.126 -68.059)" fill="#2b3990"/>
          <path id="Tracciato_41" data-name="Tracciato 41" d="M636.45,107.6h1.642l5.267,14.558h.046l5.267-14.558h1.63l-6.156,16.451h-1.539Z" transform="translate(-405.298 -68.519)" fill="#2b3990"/>
          <rect id="Rettangolo_2" data-name="Rettangolo 2" width="1.551" height="16.451" transform="translate(247.984 39.078)" fill="#2b3990"/>
          <path id="Tracciato_42" data-name="Tracciato 42" d="M698.721,107.6h5.335a8.513,8.513,0,0,1,4.2.969,6.476,6.476,0,0,1,2.667,2.8,9.726,9.726,0,0,1,.929,4.435v.023a9.82,9.82,0,0,1-.923,4.441,6.426,6.426,0,0,1-2.668,2.81,8.54,8.54,0,0,1-4.207.969h-5.335Zm5.233,15.048a6.9,6.9,0,0,0,3.443-.792,5.156,5.156,0,0,0,2.138-2.314,8.446,8.446,0,0,0,.735-3.7v-.023a8.516,8.516,0,0,0-.735-3.717,5.119,5.119,0,0,0-2.138-2.314,6.942,6.942,0,0,0-3.443-.787h-3.682v13.646Z" transform="translate(-444.953 -68.519)" fill="#2b3990"/>
          <path id="Tracciato_43" data-name="Tracciato 43" d="M762.8,122.8a6.952,6.952,0,0,1-2.588-2.959,10.269,10.269,0,0,1-.912-4.48v-.012a10.261,10.261,0,0,1,.912-4.486,6.9,6.9,0,0,1,2.582-2.941,7.281,7.281,0,0,1,3.939-1.043,7.009,7.009,0,0,1,3.067.656,6.236,6.236,0,0,1,2.269,1.818,6.389,6.389,0,0,1,1.208,2.7l.023.114h-1.562l-.057-.205a5.268,5.268,0,0,0-.991-1.932,4.581,4.581,0,0,0-1.67-1.266,5.988,5.988,0,0,0-5.381.416,5.637,5.637,0,0,0-2.035,2.445,8.927,8.927,0,0,0-.718,3.722v.012a8.867,8.867,0,0,0,.724,3.716,5.744,5.744,0,0,0,2.041,2.462,5.892,5.892,0,0,0,5.352.428,4.634,4.634,0,0,0,1.682-1.289,5.446,5.446,0,0,0,1.021-2.012l.034-.1H773.3l-.023.114a6.392,6.392,0,0,1-1.208,2.713A6.186,6.186,0,0,1,769.8,123.2a7.042,7.042,0,0,1-3.073.65A7.228,7.228,0,0,1,762.8,122.8" transform="translate(-483.528 -68.059)" fill="#2b3990"/>
          <path id="Tracciato_44" data-name="Tracciato 44" d="M807.336,107.6h1.551v15.048h8.231v1.4h-9.782Z" transform="translate(-514.12 -68.519)" fill="#2b3990"/>
          <rect id="Rettangolo_3" data-name="Rettangolo 3" width="1.551" height="16.451" transform="translate(306.377 39.078)" fill="#2b3990"/>
          <path id="Tracciato_45" data-name="Tracciato 45" d="M859.5,107.6h1.528l11.025,15.766-2.007-1.927h.718V107.6H872.3v16.451h-1.539l-11.025-15.756,2.018,1.915h-.73v13.84H859.5Z" transform="translate(-547.338 -68.519)" fill="#2b3990"/>
          <rect id="Rettangolo_4" data-name="Rettangolo 4" width="1.551" height="16.451" transform="translate(329.198 39.078)" fill="#2b3990"/>
          <path id="Tracciato_46" data-name="Tracciato 46" d="M924.014,122.8a6.952,6.952,0,0,1-2.588-2.959,10.269,10.269,0,0,1-.912-4.48v-.012a10.261,10.261,0,0,1,.912-4.486,6.9,6.9,0,0,1,2.582-2.941,7.281,7.281,0,0,1,3.939-1.043,7.008,7.008,0,0,1,3.067.656,6.236,6.236,0,0,1,2.269,1.818,6.39,6.39,0,0,1,1.208,2.7l.023.114h-1.562l-.057-.205a5.268,5.268,0,0,0-.992-1.932,4.581,4.581,0,0,0-1.67-1.266,5.988,5.988,0,0,0-5.381.416,5.637,5.637,0,0,0-2.035,2.445,8.925,8.925,0,0,0-.718,3.722v.012a8.868,8.868,0,0,0,.724,3.716,5.745,5.745,0,0,0,2.041,2.462,5.892,5.892,0,0,0,5.352.428,4.634,4.634,0,0,0,1.682-1.289,5.446,5.446,0,0,0,1.021-2.012l.034-.1h1.562l-.023.114a6.392,6.392,0,0,1-1.208,2.713,6.186,6.186,0,0,1-2.263,1.813,7.042,7.042,0,0,1-3.073.65,7.228,7.228,0,0,1-3.933-1.054" transform="translate(-586.193 -68.059)" fill="#2b3990"/>
        </g>
      </g>
    </g>
  </g>
</svg>
