<?xml version="1.0" standalone="no"?>
<!DOCTYPE svg PUBLIC "-//W3C//DTD SVG 20010904//EN"
 "http://www.w3.org/TR/2001/REC-SVG-20010904/DTD/svg10.dtd">
<svg version="1.0" xmlns="http://www.w3.org/2000/svg"
 width="700.000000pt" height="700.000000pt" viewBox="0 0 700.000000 700.000000"
 preserveAspectRatio="xMidYMid meet">
<metadata>
Created by potrace 1.14, written by Peter Selinger 2001-2017
</metadata>
<g transform="translate(0.000000,700.000000) scale(0.100000,-0.100000)"
fill="#000000" stroke="none">
<path d="M3280 6994 c-19 -2 -84 -9 -145 -14 -578 -56 -1180 -283 -1660 -625
-237 -169 -531 -446 -709 -670 -416 -521 -673 -1147 -748 -1820 -17 -155 -17
-575 0 -730 52 -469 198 -931 418 -1327 290 -523 731 -983 1239 -1294 439
-269 920 -432 1460 -496 145 -17 576 -17 730 0 822 91 1556 447 2131 1034 203
206 348 390 487 618 274 449 433 916 499 1465 16 136 16 592 0 730 -86 725
-352 1347 -803 1885 -122 145 -351 370 -494 484 -510 407 -1117 661 -1775 742
-117 15 -553 27 -630 18z m624 -774 c550 -83 1042 -318 1465 -699 90 -81 234
-237 309 -335 l46 -59 -45 -41 c-25 -23 -109 -96 -186 -163 l-141 -122 -75 92
c-300 369 -727 650 -1175 773 -226 62 -348 78 -597 78 -263 0 -403 -19 -632
-85 -610 -176 -1134 -626 -1414 -1214 -31 -66 -63 -137 -70 -158 l-13 -38
1436 -1436 1437 -1437 53 18 c88 31 287 129 385 189 441 274 788 716 952 1213
27 82 52 161 55 177 l6 27 -600 0 -600 0 0 250 0 250 875 0 875 0 0 -57 c0
-92 -19 -278 -41 -403 -80 -459 -269 -876 -566 -1250 -86 -109 -314 -337 -423
-424 -311 -246 -700 -441 -1043 -522 l-78 -18 -1636 1636 -1637 1637 13 58
c23 99 91 302 143 423 90 211 236 454 384 640 88 110 315 337 424 424 427 339
925 542 1460 595 152 15 493 5 654 -19z m-669 -5232 l240 -240 -80 6 c-659 52
-1191 251 -1640 613 -119 96 -335 315 -426 433 -345 443 -546 980 -576 1530
l-6 125 1124 -1114 c618 -613 1232 -1222 1364 -1353z"/>
</g>
</svg>
