<?xml version="1.0" standalone="no"?>
<!DOCTYPE svg PUBLIC "-//W3C//DTD SVG 20010904//EN"
 "http://www.w3.org/TR/2001/REC-SVG-20010904/DTD/svg10.dtd">
<svg version="1.0" xmlns="http://www.w3.org/2000/svg"
 width="728.000000pt" height="728.000000pt" viewBox="0 0 728.000000 728.000000"
 preserveAspectRatio="xMidYMid meet">
<metadata>
Created by potrace 1.14, written by Peter Selinger 2001-2017
</metadata>
<g transform="translate(0.000000,728.000000) scale(0.100000,-0.100000)"
fill="#000000" stroke="none">
<path d="M3927 6964 c-2 -2 -26 -6 -53 -9 -78 -7 -149 -17 -154 -20 -3 -2 -30
-6 -60 -10 -30 -4 -62 -11 -71 -16 -9 -4 -18 -6 -21 -4 -3 3 -29 -2 -58 -11
-30 -9 -61 -17 -69 -19 -9 -2 -29 -8 -46 -13 -33 -11 -40 -6 60 -44 64 -25
178 -84 232 -120 23 -15 46 -28 52 -28 6 0 11 -4 11 -8 0 -4 14 -16 31 -26 75
-44 267 -218 372 -337 26 -30 53 -61 61 -69 7 -8 38 -49 69 -90 31 -41 62 -82
69 -91 12 -15 18 -24 49 -79 8 -14 20 -29 27 -33 6 -4 12 -12 12 -17 0 -5 13
-31 29 -57 46 -77 100 -182 133 -258 25 -59 93 -239 96 -255 1 -7 8 -31 20
-70 6 -19 14 -52 18 -73 8 -47 20 -44 114 23 36 26 77 53 91 60 13 7 26 16 29
19 3 3 16 12 29 19 44 25 91 52 129 74 47 27 290 148 297 148 3 0 24 9 48 19
50 23 174 72 190 75 7 2 19 6 27 9 15 6 122 37 144 41 6 2 22 6 36 9 29 8 68
15 125 23 22 3 59 9 83 14 76 14 312 10 387 -6 85 -19 86 -19 107 -28 33 -15
36 -1 8 34 -16 19 -57 71 -92 115 -87 112 -323 344 -448 443 -58 46 -113 90
-123 98 -9 8 -19 14 -21 14 -4 0 -131 84 -162 107 -5 4 -19 13 -30 19 -10 6
-41 23 -69 39 -75 42 -235 123 -235 119 0 -2 -15 5 -34 15 -100 56 -503 185
-644 206 -15 2 -36 6 -47 8 -37 8 -90 16 -135 22 -25 3 -67 8 -95 11 -54 7
-512 14 -518 8z"/>
<path d="M6168 5614 c-2 -1 -30 -5 -63 -8 -66 -6 -116 -13 -155 -22 -14 -3
-38 -8 -55 -11 -29 -4 -185 -48 -215 -60 -8 -4 -17 -7 -20 -7 -10 -2 -126 -48
-155 -61 -103 -47 -254 -124 -265 -135 -3 -3 -18 -12 -35 -20 -16 -8 -39 -23
-49 -32 -11 -10 -24 -18 -29 -18 -5 0 -21 -9 -35 -21 -15 -11 -60 -44 -100
-74 -40 -29 -102 -79 -138 -110 -70 -62 -69 -60 -50 -185 31 -194 26 -634 -9
-890 -4 -30 -9 -64 -10 -75 -2 -25 -16 -113 -22 -140 -9 -44 -36 -191 -37
-205 -1 -9 -5 -21 -10 -28 -4 -6 -5 -12 -2 -12 3 0 1 -11 -4 -25 -7 -19 -6
-25 5 -25 7 0 16 4 19 9 7 11 157 99 170 99 5 0 12 5 16 12 7 12 457 241 468
238 4 -1 33 10 65 25 32 15 63 27 70 27 7 0 17 4 22 9 8 7 103 44 140 55 6 2
17 6 25 9 28 10 175 59 190 63 8 2 51 13 95 25 44 11 89 23 100 24 133 23 196
29 325 29 152 0 232 -8 332 -33 211 -54 376 -158 486 -306 l44 -60 -6 170 c-3
94 -7 179 -10 190 -2 12 -7 51 -10 87 -4 37 -9 77 -11 90 -3 13 -10 52 -16 88
-22 129 -26 155 -29 155 -1 0 -3 10 -6 22 -25 134 -133 466 -200 613 -98 213
-241 446 -262 426 -3 -3 -10 -2 -16 3 -26 22 -122 51 -281 87 -22 5 -263 13
-267 8z"/>
<path d="M6337 3914 c-1 -1 -31 -4 -67 -7 -36 -4 -78 -9 -95 -12 -16 -3 -43
-7 -60 -10 -16 -3 -41 -8 -55 -11 -14 -3 -34 -7 -45 -9 -51 -8 -272 -77 -400
-125 -11 -4 -23 -8 -28 -8 -4 -1 -24 -10 -45 -21 -58 -31 -150 -71 -161 -71
-6 0 -11 -4 -11 -9 0 -5 -11 -12 -24 -15 -14 -3 -51 -21 -83 -40 -259 -149
-348 -202 -413 -246 -8 -6 -60 -39 -115 -73 l-100 -63 -32 -94 c-18 -52 -33
-95 -33 -95 -1 0 -3 -7 -5 -15 -1 -9 -13 -40 -25 -70 -12 -30 -26 -64 -30 -75
-53 -138 -166 -377 -245 -520 -69 -126 -210 -354 -247 -400 -5 -5 -49 -66 -99
-133 -50 -68 -98 -132 -107 -141 -10 -10 -33 -38 -52 -62 -19 -24 -61 -71 -92
-104 -31 -33 -55 -61 -53 -63 1 -2 29 12 61 31 61 35 143 80 279 154 134 72
400 201 544 264 75 33 145 64 156 69 88 41 518 194 575 205 8 2 35 8 60 15 25
7 55 14 67 16 12 2 35 9 50 15 16 6 29 10 31 9 3 -2 73 9 152 24 91 18 382 26
435 13 11 -2 40 -8 65 -13 50 -9 58 -10 65 -14 3 -1 8 -3 13 -5 4 -1 16 -5 27
-9 155 -59 263 -157 331 -300 24 -51 44 -102 44 -112 1 -33 60 40 174 212 69
105 79 120 107 171 52 93 162 322 174 363 1 3 9 22 18 44 9 21 17 44 17 51 0
6 3 15 6 18 19 19 113 338 143 482 11 55 23 114 26 130 7 37 11 73 20 193 7
90 6 93 -21 130 -80 108 -233 219 -369 266 -11 4 -22 7 -25 8 -3 0 -12 4 -21
9 -9 4 -27 10 -40 13 -13 3 -42 10 -64 15 -69 17 -136 23 -258 25 -64 1 -118
1 -120 0z"/>
<path d="M5707 1883 c-1 -1 -30 -4 -65 -7 -158 -15 -374 -66 -609 -144 -144
-48 -368 -130 -428 -157 -38 -17 -64 -25 -69 -22 -1 1 -9 -3 -17 -9 -8 -6 -57
-28 -109 -49 -52 -21 -119 -48 -148 -61 -29 -13 -55 -24 -57 -24 -2 0 -29 -11
-59 -25 -30 -14 -57 -25 -60 -25 -3 0 -30 -11 -60 -25 -60 -27 -109 -47 -114
-45 -1 0 -15 -6 -30 -14 -25 -14 -100 -46 -312 -133 -47 -19 -98 -41 -115 -48
-26 -12 -70 -27 -85 -30 -3 0 -27 -11 -54 -23 -27 -12 -52 -22 -56 -22 -3 0
-35 -12 -71 -26 -35 -14 -70 -28 -79 -30 -8 -2 -64 -21 -125 -42 -100 -34
-248 -80 -278 -86 -7 -2 -31 -8 -55 -15 -24 -7 -56 -14 -72 -16 -16 -2 -34 -6
-39 -10 -6 -3 -23 -8 -38 -10 -38 -6 -93 -15 -123 -21 -109 -21 -341 -31 -428
-19 -17 3 -44 7 -60 9 -15 2 -34 6 -42 9 -37 13 -71 17 -66 8 6 -9 147 -80
205 -103 64 -25 157 -59 171 -63 8 -2 35 -8 60 -14 72 -18 76 -19 111 -25 19
-3 44 -8 57 -10 115 -24 456 -24 574 0 13 2 52 9 88 15 36 5 82 14 103 20 21
6 50 12 65 14 32 4 313 84 327 93 6 4 15 7 20 8 38 7 402 151 530 209 17 7 46
20 65 28 19 9 74 34 123 56 48 23 89 41 91 41 2 0 44 18 93 41 48 22 111 51
138 64 192 88 591 247 653 259 9 1 24 6 32 9 54 20 239 61 329 72 66 8 266 8
301 0 14 -3 39 -8 55 -10 150 -26 333 -126 450 -244 54 -55 71 -63 61 -28 -4
12 -9 45 -13 72 -3 28 -10 58 -15 68 -5 10 -7 21 -5 24 6 5 -43 141 -69 193
-48 94 -138 190 -224 238 -66 37 -165 69 -240 78 -51 6 -209 12 -213 7z"/>
<path d="M1138 1375 c-2 -2 -43 -5 -93 -9 -49 -3 -100 -8 -111 -10 -12 -2 -39
-7 -60 -10 -22 -4 -46 -8 -54 -11 -8 -2 -32 -6 -52 -9 -21 -2 -41 -7 -46 -10
-5 -3 -21 -7 -36 -10 -40 -7 -215 -62 -261 -82 -22 -10 -45 -19 -51 -20 -16
-3 -228 -106 -234 -113 -3 -4 -26 -18 -53 -31 -26 -14 -57 -33 -70 -42 -22
-17 -22 -18 10 -9 30 9 100 17 233 27 156 13 486 3 700 -21 25 -3 79 -7 120
-10 41 -3 93 -7 115 -10 300 -33 727 -38 935 -10 19 2 53 6 75 9 91 9 160 18
166 22 4 2 31 6 60 10 30 4 106 17 169 31 63 13 126 26 140 29 14 2 36 9 50
14 14 5 36 11 50 14 60 11 311 108 403 157 9 5 25 13 35 18 9 5 37 19 62 32
25 13 55 28 67 34 47 21 20 21 -63 -1 -48 -13 -98 -25 -113 -28 -14 -3 -39 -7
-56 -10 -100 -19 -198 -31 -335 -42 -162 -12 -504 -7 -705 11 -27 2 -79 7
-115 10 -36 3 -83 8 -105 10 -22 3 -60 7 -85 10 -25 2 -56 6 -70 9 -14 3 -50
7 -81 10 -31 3 -72 8 -90 10 -19 3 -54 8 -79 11 -25 3 -58 8 -75 11 -29 5
-292 13 -297 9z"/>
<path d="M5526 1202 c-2 -1 -23 -4 -48 -7 -115 -14 -225 -45 -438 -127 -19 -7
-38 -17 -42 -23 -4 -5 -8 -6 -8 -2 0 5 -12 2 -27 -7 -16 -8 -149 -75 -298
-149 -148 -74 -283 -142 -300 -151 -16 -9 -36 -16 -42 -16 -7 0 -13 -4 -13
-10 0 -5 -4 -10 -9 -10 -6 0 -49 -18 -96 -40 -298 -138 -552 -212 -742 -214
-29 -1 -53 -4 -53 -8 0 -4 -12 -5 -27 -3 -58 10 -144 12 -141 3 2 -5 30 -18
63 -29 33 -11 65 -21 70 -23 6 -2 13 -4 17 -5 4 -1 22 -7 40 -13 30 -9 52 -14
128 -32 45 -11 105 -20 133 -20 15 -1 27 -4 27 -7 0 -8 348 -4 380 5 14 3 41
9 60 12 126 20 339 92 458 156 28 15 52 25 52 23 0 -3 12 3 27 12 15 10 48 29
74 43 26 14 92 50 146 80 54 30 103 57 108 59 6 2 12 7 15 10 20 24 383 197
455 218 189 53 217 59 330 68 108 10 193 5 305 -16 30 -6 69 -12 85 -15 27 -4
28 -3 11 9 -10 6 -29 22 -42 35 -13 12 -26 22 -29 22 -4 0 -21 11 -38 24 -36
27 -177 99 -177 91 0 -3 -12 1 -27 8 -28 14 -92 31 -168 43 -39 6 -214 11
-219 6z"/>
<path d="M3215 440 c3 -5 8 -10 11 -10 2 0 4 5 4 10 0 6 -5 10 -11 10 -5 0 -7
-4 -4 -10z"/>
</g>
</svg>
